<svg xmlns="http://www.w3.org/2000/svg" width="128" height="128" viewBox="0 0 128 128">
  <defs>
    <linearGradient id="grad128" x1="0%" y1="0%" x2="100%" y2="100%">
      <stop offset="0%" style="stop-color:#4fc3f7;stop-opacity:1" />
      <stop offset="100%" style="stop-color:#29b6f6;stop-opacity:1" />
    </linearGradient>
    <filter id="shadow" x="-20%" y="-20%" width="140%" height="140%">
      <feDropShadow dx="0" dy="4" stdDeviation="8" flood-opacity="0.3"/>
    </filter>
  </defs>
  <circle cx="64" cy="64" r="56" fill="url(#grad128)" filter="url(#shadow)"/>
  <path d="M64 28c-7.7 0-14 6.3-14 14v24c0 7.7 6.3 14 14 14s14-6.3 14-14V42c0-7.7-6.3-14-14-14z" fill="white"/>
  <path d="M86 66c0 12.1-9.9 22-22 22s-22-9.9-22-22h-8c0 15.5 11.6 28.3 26.5 29.8V106h7V95.8c14.9-1.5 26.5-14.3 26.5-29.8h-8z" fill="white"/>
  <!-- Sound waves -->
  <path d="M98 52c4 6 4 20 0 26" stroke="white" stroke-width="4" fill="none" stroke-linecap="round"/>
  <path d="M106 44c6 10 6 32 0 42" stroke="white" stroke-width="4" fill="none" stroke-linecap="round" opacity="0.7"/>
  <path d="M30 52c-4 6-4 20 0 26" stroke="white" stroke-width="4" fill="none" stroke-linecap="round"/>
  <path d="M22 44c-6 10-6 32 0 42" stroke="white" stroke-width="4" fill="none" stroke-linecap="round" opacity="0.7"/>
</svg>
