<svg xmlns="http://www.w3.org/2000/svg" width="16" height="16" viewBox="0 0 16 16">
  <defs>
    <linearGradient id="grad16" x1="0%" y1="0%" x2="100%" y2="100%">
      <stop offset="0%" style="stop-color:#4fc3f7;stop-opacity:1" />
      <stop offset="100%" style="stop-color:#29b6f6;stop-opacity:1" />
    </linearGradient>
  </defs>
  <circle cx="8" cy="8" r="7" fill="url(#grad16)"/>
  <path d="M8 3.5c-.83 0-1.5.67-1.5 1.5v3c0 .83.67 1.5 1.5 1.5s1.5-.67 1.5-1.5V5c0-.83-.67-1.5-1.5-1.5z" fill="white"/>
  <path d="M10.5 8c0 1.38-1.12 2.5-2.5 2.5S5.5 9.38 5.5 8H4.5c0 1.77 1.3 3.22 3 3.46v1.04h1v-1.04c1.7-.24 3-1.69 3-3.46h-1z" fill="white"/>
</svg>
