<svg xmlns="http://www.w3.org/2000/svg" width="48" height="48" viewBox="0 0 48 48">
  <defs>
    <linearGradient id="grad48" x1="0%" y1="0%" x2="100%" y2="100%">
      <stop offset="0%" style="stop-color:#4fc3f7;stop-opacity:1" />
      <stop offset="100%" style="stop-color:#29b6f6;stop-opacity:1" />
    </linearGradient>
  </defs>
  <circle cx="24" cy="24" r="22" fill="url(#grad48)"/>
  <path d="M24 12c-2.5 0-4.5 2-4.5 4.5v8c0 2.5 2 4.5 4.5 4.5s4.5-2 4.5-4.5v-8c0-2.5-2-4.5-4.5-4.5z" fill="white"/>
  <path d="M31 24.5c0 3.87-3.13 7-7 7s-7-3.13-7-7h-3c0 5.15 3.83 9.4 8.75 9.92V38h2.5v-3.58c4.92-.52 8.75-4.77 8.75-9.92h-3z" fill="white"/>
</svg>
